<svg width="33" height="29" viewBox="0 0 33 29" fill="none" xmlns="http://www.w3.org/2000/svg">
<path d="M24.0011 16.247C23.8565 13.907 23.0303 11.6605 21.6243 9.78442C20.2184 7.90834 18.2941 6.48469 16.0888 5.68899C13.8836 4.8933 11.4936 4.76033 9.21369 5.30649C6.93375 5.85266 4.86347 7.05407 3.25808 8.76262C1.65269 10.4712 0.582369 12.6122 0.179071 14.9217C-0.224228 17.2312 0.0571252 19.6082 0.988445 21.7597C1.91976 23.9112 3.46034 25.7432 5.42024 27.0297C7.38014 28.3163 9.67369 29.0012 12.0181 29H19.0011C20.3268 28.9987 21.5978 28.4715 22.5352 27.5341C23.4726 26.5967 23.9998 25.3257 24.0011 24V16.247ZM22.0011 24C22.0011 24.7956 21.6851 25.5587 21.1224 26.1213C20.5598 26.6839 19.7968 27 19.0011 27H12.0181C10.6071 26.9994 9.21197 26.7013 7.92383 26.1253C6.63568 25.5493 5.4834 24.7082 4.54213 23.657C3.5963 22.6063 2.88606 21.3655 2.45902 20.0178C2.03199 18.6701 1.89803 17.2467 2.06613 15.843C2.33156 13.6289 3.32632 11.5662 4.89357 9.97992C6.46082 8.39366 8.51143 7.37411 10.7221 7.082C11.1534 7.02795 11.5875 7.00056 12.0221 7C14.3526 6.99364 16.6109 7.8079 18.4011 9.3C19.4467 10.1689 20.3048 11.2412 20.9237 12.4516C21.5425 13.6621 21.909 14.9856 22.0011 16.342V24Z" fill="#A2A2C2"/>
<path d="M8.00113 14H12.0011C12.2663 14 12.5207 13.8946 12.7082 13.7071C12.8958 13.5196 13.0011 13.2652 13.0011 13C13.0011 12.7348 12.8958 12.4804 12.7082 12.2929C12.5207 12.1054 12.2663 12 12.0011 12H8.00113C7.73591 12 7.48156 12.1054 7.29402 12.2929C7.10649 12.4804 7.00113 12.7348 7.00113 13C7.00113 13.2652 7.10649 13.5196 7.29402 13.7071C7.48156 13.8946 7.73591 14 8.00113 14Z" fill="#A2A2C2"/>
<path d="M16.0011 16H8.00113C7.73591 16 7.48156 16.1054 7.29402 16.2929C7.10649 16.4804 7.00113 16.7348 7.00113 17C7.00113 17.2652 7.10649 17.5196 7.29402 17.7071C7.48156 17.8946 7.73591 18 8.00113 18H16.0011C16.2663 18 16.5207 17.8946 16.7082 17.7071C16.8958 17.5196 17.0011 17.2652 17.0011 17C17.0011 16.7348 16.8958 16.4804 16.7082 16.2929C16.5207 16.1054 16.2663 16 16.0011 16Z" fill="#A2A2C2"/>
<path d="M16.0011 20H8.00113C7.73591 20 7.48156 20.1054 7.29402 20.2929C7.10649 20.4804 7.00113 20.7348 7.00113 21C7.00113 21.2652 7.10649 21.5196 7.29402 21.7071C7.48156 21.8946 7.73591 22 8.00113 22H16.0011C16.2663 22 16.5207 21.8946 16.7082 21.7071C16.8958 21.5196 17.0011 21.2652 17.0011 21C17.0011 20.7348 16.8958 20.4804 16.7082 20.2929C16.5207 20.1054 16.2663 20 16.0011 20Z" fill="#A2A2C2"/>
<circle cx="23.5" cy="9.5" r="9" fill="#FF808B" stroke="#FEFEFE"/>
</svg>
