<svg width="47" height="47" viewBox="0 0 47 47" fill="none" xmlns="http://www.w3.org/2000/svg">
<path d="M2 23.5H0.5H2ZM10.0625 23.5H8.5625H10.0625ZM23.5 36.9375V38.4375V36.9375ZM36.9375 23.5H38.4375H36.9375ZM23.5 0.5C17.4 0.5 11.5499 2.92321 7.23654 7.23654L9.35786 9.35786C13.1086 5.60714 18.1957 3.5 23.5 3.5V0.5ZM7.23654 7.23654C2.92321 11.5499 0.5 17.4 0.5 23.5H3.5C3.5 18.1957 5.60714 13.1086 9.35786 9.35786L7.23654 7.23654ZM0.5 23.5C0.5 29.6 2.92321 35.4501 7.23654 39.7635L9.35786 37.6421C5.60714 33.8914 3.5 28.8043 3.5 23.5H0.5ZM7.23654 39.7635C11.5499 44.0768 17.4 46.5 23.5 46.5V43.5C18.1957 43.5 13.1086 41.3929 9.35786 37.6421L7.23654 39.7635ZM23.5 46.5C29.6 46.5 35.4501 44.0768 39.7635 39.7635L37.6421 37.6421C33.8914 41.3929 28.8043 43.5 23.5 43.5V46.5ZM39.7635 39.7635C44.0768 35.4501 46.5 29.6 46.5 23.5H43.5C43.5 28.8043 41.3929 33.8914 37.6421 37.6421L39.7635 39.7635ZM46.5 23.5C46.5 17.4 44.0768 11.5499 39.7635 7.23654L37.6421 9.35786C41.3929 13.1086 43.5 18.1957 43.5 23.5H46.5ZM39.7635 7.23654C35.4501 2.92321 29.6 0.5 23.5 0.5V3.5C28.8043 3.5 33.8914 5.60714 37.6421 9.35786L39.7635 7.23654ZM23.5 8.5625C19.5383 8.5625 15.7389 10.1363 12.9376 12.9376L15.0589 15.0589C17.2976 12.8202 20.334 11.5625 23.5 11.5625V8.5625ZM12.9376 12.9376C10.1363 15.7389 8.5625 19.5383 8.5625 23.5H11.5625C11.5625 20.334 12.8202 17.2976 15.0589 15.0589L12.9376 12.9376ZM8.5625 23.5C8.5625 27.4617 10.1363 31.2611 12.9376 34.0624L15.0589 31.9411C12.8202 29.7024 11.5625 26.666 11.5625 23.5H8.5625ZM12.9376 34.0624C15.7389 36.8637 19.5383 38.4375 23.5 38.4375V35.4375C20.334 35.4375 17.2976 34.1798 15.0589 31.9411L12.9376 34.0624ZM23.5 38.4375C27.4617 38.4375 31.2611 36.8637 34.0624 34.0624L31.9411 31.9411C29.7024 34.1798 26.666 35.4375 23.5 35.4375V38.4375ZM34.0624 34.0624C36.8637 31.2611 38.4375 27.4617 38.4375 23.5H35.4375C35.4375 26.666 34.1798 29.7024 31.9411 31.9411L34.0624 34.0624ZM38.4375 23.5C38.4375 19.5383 36.8637 15.7389 34.0624 12.9376L31.9411 15.0589C34.1798 17.2976 35.4375 20.334 35.4375 23.5H38.4375ZM34.0624 12.9376C31.2611 10.1363 27.4617 8.5625 23.5 8.5625V11.5625C26.666 11.5625 29.7024 12.8202 31.9411 15.0589L34.0624 12.9376ZM14.5005 11.5787C9.75784 15.3728 7.04387 19.9806 6.55304 25.3798C6.06719 30.7241 7.77865 36.636 11.4476 43.0567L14.0524 41.5683C10.5547 35.4474 9.13073 30.1613 9.54072 25.6514C9.94571 21.1964 12.1588 17.2939 16.3745 13.9213L14.5005 11.5787ZM32.4995 35.4213C37.2358 31.6323 39.955 27.0749 40.4468 21.718C40.9334 16.4178 39.2189 10.5527 35.5524 4.13618L32.9476 5.6246C36.4477 11.7498 37.8686 16.9861 37.4594 21.4437C37.0554 25.8445 34.8475 29.7011 30.6255 33.0787L32.4995 35.4213Z" fill="#2F5DF2"/>
</svg>
