<svg width="18" height="17" viewBox="0 0 18 17" fill="none" xmlns="http://www.w3.org/2000/svg">
<path d="M14.25 0H3.75C2.7558 0.00119089 1.80267 0.396661 1.09966 1.09966C0.396661 1.80267 0.00119089 2.7558 0 3.75L0 12.75C0.00119089 13.7442 0.396661 14.6973 1.09966 15.4003C1.80267 16.1033 2.7558 16.4988 3.75 16.5H14.25C15.2442 16.4988 16.1973 16.1033 16.9003 15.4003C17.6033 14.6973 17.9988 13.7442 18 12.75V3.75C17.9988 2.7558 17.6033 1.80267 16.9003 1.09966C16.1973 0.396661 15.2442 0.00119089 14.25 0ZM3.75 1.5H14.25C14.6991 1.50088 15.1376 1.63614 15.5092 1.88835C15.8808 2.14057 16.1684 2.49821 16.335 2.91525L10.5915 8.6595C10.1688 9.08049 9.59656 9.31685 9 9.31685C8.40344 9.31685 7.83118 9.08049 7.4085 8.6595L1.665 2.91525C1.83161 2.49821 2.11921 2.14057 2.49079 1.88835C2.86236 1.63614 3.30091 1.50088 3.75 1.5ZM14.25 15H3.75C3.15326 15 2.58097 14.7629 2.15901 14.341C1.73705 13.919 1.5 13.3467 1.5 12.75V4.875L6.348 9.72C7.05197 10.4222 8.00569 10.8165 9 10.8165C9.99431 10.8165 10.948 10.4222 11.652 9.72L16.5 4.875V12.75C16.5 13.3467 16.2629 13.919 15.841 14.341C15.419 14.7629 14.8467 15 14.25 15Z" fill="#6083F4"/>
</svg>
