<svg width="22" height="24" viewBox="0 0 22 24" fill="none" xmlns="http://www.w3.org/2000/svg">
<path d="M20.294 13.9L19.85 13.644C20.0499 12.5564 20.0499 11.4416 19.85 10.354L20.294 10.098C20.6355 9.90102 20.9347 9.63871 21.1748 9.32606C21.4149 9.01341 21.591 8.65654 21.6932 8.27582C21.7953 7.8951 21.8215 7.49799 21.7701 7.10716C21.7188 6.71633 21.591 6.33944 21.394 5.998C21.197 5.65656 20.9347 5.35727 20.6221 5.1172C20.3094 4.87714 19.9526 4.70101 19.5718 4.59886C19.1911 4.49672 18.794 4.47056 18.4032 4.52189C18.0123 4.57321 17.6355 4.70102 17.294 4.898L16.849 5.155C16.0085 4.43692 15.0427 3.88025 14 3.513V3C14 2.20435 13.6839 1.44129 13.1213 0.87868C12.5587 0.31607 11.7957 0 11 0C10.2044 0 9.4413 0.31607 8.87869 0.87868C8.31608 1.44129 8.00001 2.20435 8.00001 3V3.513C6.9574 3.88157 5.99186 4.4396 5.15201 5.159L4.70501 4.9C4.01545 4.50218 3.19609 4.39457 2.42719 4.60086C1.6583 4.80715 1.00284 5.31044 0.605012 6C0.207188 6.68956 0.0995846 7.50892 0.305875 8.27782C0.512165 9.04672 1.01545 9.70218 1.70501 10.1L2.14901 10.356C1.94912 11.4436 1.94912 12.5584 2.14901 13.646L1.70501 13.902C1.01545 14.2998 0.512165 14.9553 0.305875 15.7242C0.0995846 16.4931 0.207188 17.3124 0.605012 18.002C1.00284 18.6916 1.6583 19.1948 2.42719 19.4011C3.19609 19.6074 4.01545 19.4998 4.70501 19.102L5.15001 18.845C5.99078 19.5632 6.95699 20.1199 8.00001 20.487V21C8.00001 21.7956 8.31608 22.5587 8.87869 23.1213C9.4413 23.6839 10.2044 24 11 24C11.7957 24 12.5587 23.6839 13.1213 23.1213C13.6839 22.5587 14 21.7956 14 21V20.487C15.0426 20.1184 16.0082 19.5604 16.848 18.841L17.295 19.099C17.9846 19.4968 18.8039 19.6044 19.5728 19.3981C20.3417 19.1918 20.9972 18.6886 21.395 17.999C21.7928 17.3094 21.9004 16.4901 21.6942 15.7212C21.4879 14.9523 20.9846 14.2968 20.295 13.899L20.294 13.9ZM17.746 10.124C18.0847 11.3511 18.0847 12.6469 17.746 13.874C17.6869 14.0876 17.7004 14.3147 17.7844 14.5198C17.8683 14.7249 18.0181 14.8963 18.21 15.007L19.294 15.633C19.5238 15.7656 19.6915 15.9841 19.7603 16.2403C19.829 16.4966 19.7931 16.7697 19.6605 16.9995C19.5279 17.2293 19.3094 17.397 19.0532 17.4658C18.7969 17.5345 18.5238 17.4986 18.294 17.366L17.208 16.738C17.0159 16.6267 16.7922 16.5826 16.5723 16.6124C16.3523 16.6423 16.1485 16.7445 15.993 16.903C15.1029 17.8117 13.9816 18.46 12.75 18.778C12.535 18.8333 12.3446 18.9585 12.2086 19.1339C12.0726 19.3094 11.9989 19.525 11.999 19.747V21C11.999 21.2652 11.8937 21.5196 11.7061 21.7071C11.5186 21.8946 11.2642 22 10.999 22C10.7338 22 10.4794 21.8946 10.2919 21.7071C10.1044 21.5196 9.99901 21.2652 9.99901 21V19.748C9.99912 19.526 9.92539 19.3104 9.78942 19.1349C9.65345 18.9595 9.46298 18.8343 9.24801 18.779C8.01636 18.4597 6.89534 17.81 6.00601 16.9C5.85054 16.7415 5.64675 16.6393 5.42677 16.6094C5.20679 16.5796 4.98312 16.6237 4.79101 16.735L3.70701 17.362C3.59324 17.4287 3.4674 17.4722 3.33674 17.4901C3.20607 17.508 3.07317 17.4998 2.94567 17.4661C2.81817 17.4324 2.69859 17.3738 2.59383 17.2937C2.48907 17.2136 2.40119 17.1135 2.33525 16.9993C2.26931 16.8851 2.22661 16.759 2.20961 16.6282C2.19261 16.4974 2.20165 16.3646 2.2362 16.2373C2.27076 16.11 2.33014 15.9909 2.41095 15.8866C2.49175 15.7824 2.59237 15.6952 2.70701 15.63L3.79101 15.004C3.98296 14.8933 4.13269 14.7219 4.21667 14.5168C4.30066 14.3117 4.31414 14.0846 4.25501 13.871C3.91637 12.6439 3.91637 11.3481 4.25501 10.121C4.31308 9.90788 4.29895 9.68153 4.21483 9.47729C4.13071 9.27305 3.98133 9.10241 3.79001 8.992L2.70601 8.366C2.4762 8.23339 2.30848 8.01492 2.23975 7.75865C2.17102 7.50239 2.2069 7.22931 2.33951 6.9995C2.47212 6.76969 2.69059 6.60197 2.94686 6.53324C3.20313 6.46451 3.4762 6.50039 3.70601 6.633L4.79201 7.261C4.98359 7.37251 5.20679 7.41721 5.42654 7.38807C5.64629 7.35893 5.85012 7.25759 6.00601 7.1C6.8961 6.19134 8.01744 5.54302 9.24901 5.225C9.46464 5.16956 9.65561 5.04375 9.79165 4.8675C9.92768 4.69125 10.001 4.47464 10 4.252V3C10 2.73478 10.1054 2.48043 10.2929 2.29289C10.4804 2.10536 10.7348 2 11 2C11.2652 2 11.5196 2.10536 11.7071 2.29289C11.8947 2.48043 12 2.73478 12 3V4.252C11.9999 4.47396 12.0736 4.68964 12.2096 4.86508C12.3456 5.04052 12.536 5.16573 12.751 5.221C13.983 5.54015 15.1044 6.18988 15.994 7.1C16.1495 7.25847 16.3533 7.36069 16.5733 7.39057C16.7932 7.42044 17.0169 7.37626 17.209 7.265L18.293 6.638C18.4068 6.5713 18.5326 6.52777 18.6633 6.5099C18.794 6.49204 18.9269 6.50019 19.0544 6.5339C19.1819 6.56761 19.3014 6.6262 19.4062 6.70631C19.511 6.78642 19.5988 6.88646 19.6648 7.00067C19.7307 7.11488 19.7734 7.24101 19.7904 7.37179C19.8074 7.50257 19.7984 7.63542 19.7638 7.76269C19.7293 7.88997 19.6699 8.00915 19.5891 8.11337C19.5083 8.2176 19.4077 8.30482 19.293 8.37L18.209 8.996C18.0181 9.10671 17.8691 9.27748 17.7854 9.48169C17.7016 9.68591 17.6878 9.9121 17.746 10.125V10.124Z" fill="#A2A2C2"/>
</svg>
